# xmcd
#
# Track frame offsets:
#	150
#	18107
#	35411
#	52482
#	72430
#	88727
#	109567
#	128046
#	144069
#	176378
#
# Disc length: 2758 seconds
#
# Revision: 1
# Processed by: cddbd v1.5.1PL0 Copyright (c) Steve Scherf et al.
# Submitted via: audiograbber 1.82.01
#
DISCID=800ac40a
DTITLE=Yuri Mrakadi - Bahebak Mot
DYEAR=1900
DGENRE=
TTITLE0=Bahebbak Mot
TTITLE1=3am Bfakkir Jin
TTITLE2=Min Elli Mitli
TTITLE3=Khodni Fi Hodnak
TTITLE4=Omar El Sharif
TTITLE5=Min Addak
TTITLE6=Hiba W Ashraf
TTITLE7=Kahwati
TTITLE8=Ashkourouky
TTITLE9=Data Track
EXTD=
EXTT0=
EXTT1=
EXTT2=
EXTT3=
EXTT4=
EXTT5=
EXTT6=
EXTT7=
EXTT8=
EXTT9=
PLAYORDER=
